<svg xmlns="http://www.w3.org/2000/svg" width="25.787" height="25.498" viewBox="0 0 25.787 25.498">
  <path id="Path_13167" data-name="Path 13167" d="M340.06,828.177h-2.231v-1.292a1.175,1.175,0,0,0-2.336,0v1.292h-8.085v-1.292a1.175,1.175,0,0,0-2.336,0v1.292h-2.232a4.087,4.087,0,0,0-4.284,3.847v15.463a4.087,4.087,0,0,0,4.284,3.847H340.06a4.087,4.087,0,0,0,4.284-3.847V832.023A4.087,4.087,0,0,0,340.06,828.177Zm-17.219,2.1h2.232v1.29a1.175,1.175,0,0,0,2.336,0v-1.29h8.085v1.29a1.175,1.175,0,0,0,2.336,0v-1.29h2.231a1.858,1.858,0,0,1,1.947,1.749V835.2H320.894v-3.172A1.858,1.858,0,0,1,322.841,830.274Zm17.219,18.961H322.841a1.858,1.858,0,0,1-1.947-1.749V837.293h21.113v10.193A1.858,1.858,0,0,1,340.06,849.236Z" transform="translate(-318.557 -825.836)" fill="#030302"/>
</svg>
