<svg xmlns="http://www.w3.org/2000/svg" width="28.097" height="22.054" viewBox="0 0 28.097 22.054">
  <path id="Path_13508" data-name="Path 13508" d="M276.1,899.905a.573.573,0,0,1,0,.084l-7.7-6.707,7.7-6.718Zm-1.9,1.9H253.9a1.873,1.873,0,0,1-.942-.249l8.12-7.077.759.659a3.372,3.372,0,0,0,4.432,0l.759-.659,8.116,7.077A1.873,1.873,0,0,1,274.2,901.808Zm-22.206-1.9V886.56l7.7,6.718-7.7,6.711C251.994,899.963,251.994,899.934,251.994,899.905Zm.559-15.6a1.88,1.88,0,0,1,1.344-.558h20.3a1.878,1.878,0,0,1,1.345.558,2.007,2.007,0,0,1,.17.2l-10.641,9.275a1.541,1.541,0,0,1-1.025.384,1.559,1.559,0,0,1-1.026-.384L252.386,884.5A1.538,1.538,0,0,1,252.553,884.3Zm25.471.588a3.9,3.9,0,0,0-.8-1.7,3.513,3.513,0,0,0-.265-.293,3.889,3.889,0,0,0-2.755-1.143H253.9a3.89,3.89,0,0,0-2.754,1.143,3.507,3.507,0,0,0-.265.293,3.917,3.917,0,0,0-.878,2.463v14.258a3.9,3.9,0,0,0,.323,1.549,3.821,3.821,0,0,0,.82,1.207c.086.086.172.167.268.247a3.9,3.9,0,0,0,2.486.9h20.3a3.872,3.872,0,0,0,2.486-.9c.094-.076.182-.157.269-.243a3.918,3.918,0,0,0,.823-1.207v0a3.847,3.847,0,0,0,.319-1.545V885.647A3.953,3.953,0,0,0,278.024,884.888Z" transform="translate(-250 -881.749)" fill="#030302"/>
</svg>
