<svg xmlns="http://www.w3.org/2000/svg" width="27.33" height="27.33" viewBox="0 0 27.33 27.33">
  <path id="Icon_awesome-key" data-name="Icon awesome-key" d="M27.33,9.395a9.4,9.4,0,0,1-11.147,9.231L14.9,20.068a1.281,1.281,0,0,1-.958.43H11.957v2.135a1.281,1.281,0,0,1-1.281,1.281H8.541v2.135A1.281,1.281,0,0,1,7.26,27.33H1.281A1.281,1.281,0,0,1,0,26.049V21.882a1.281,1.281,0,0,1,.375-.906l8.637-8.637A9.4,9.4,0,1,1,27.33,9.395ZM17.935,6.832A2.562,2.562,0,1,0,20.5,4.27,2.562,2.562,0,0,0,17.935,6.832Z"/>
</svg>
