<svg xmlns="http://www.w3.org/2000/svg" width="89.84" height="38.4" viewBox="0 0 89.84 38.4">
  <path id="Path_13511" data-name="Path 13511" d="M5.4,0A2.125,2.125,0,0,1,3.82-.68a2.222,2.222,0,0,1-.66-1.6V-26.92a2.222,2.222,0,0,1,.66-1.6A2.125,2.125,0,0,1,5.4-29.2H6.68a2.189,2.189,0,0,1,1.6.68,2.189,2.189,0,0,1,.68,1.6V-5q0,.36.32.36H19.56a2.156,2.156,0,0,1,1.58.66A2.156,2.156,0,0,1,21.8-2.4v.12a2.222,2.222,0,0,1-.66,1.6A2.125,2.125,0,0,1,19.56,0ZM38.6-15.5a4.507,4.507,0,0,0-3.76-1.74,4.507,4.507,0,0,0-3.76,1.74,8.161,8.161,0,0,0-1.36,5.1,8.161,8.161,0,0,0,1.36,5.1,4.507,4.507,0,0,0,3.76,1.74A4.507,4.507,0,0,0,38.6-5.3a8.161,8.161,0,0,0,1.36-5.1A8.161,8.161,0,0,0,38.6-15.5ZM42.38-2.52A9.917,9.917,0,0,1,34.84.4,9.917,9.917,0,0,1,27.3-2.52a10.956,10.956,0,0,1-2.78-7.88,10.956,10.956,0,0,1,2.78-7.88,9.917,9.917,0,0,1,7.54-2.92,9.917,9.917,0,0,1,7.54,2.92,10.956,10.956,0,0,1,2.78,7.88A10.956,10.956,0,0,1,42.38-2.52ZM58.16-17.2a4.048,4.048,0,0,0-3.4,1.62,7.778,7.778,0,0,0-1.24,4.78A7.659,7.659,0,0,0,54.8-6.1a4.01,4.01,0,0,0,3.36,1.7A4.345,4.345,0,0,0,61.7-6.04a7.014,7.014,0,0,0,1.34-4.56V-11a7.014,7.014,0,0,0-1.34-4.56A4.345,4.345,0,0,0,58.16-17.2ZM56.68-.4a7.308,7.308,0,0,1-5.86-2.82,11.5,11.5,0,0,1-2.34-7.58q0-5.04,2.18-7.72a7.335,7.335,0,0,1,6.02-2.68,7.714,7.714,0,0,1,6.44,3.28.115.115,0,0,0,.08.04.035.035,0,0,0,.04-.04l.04-.6A2.312,2.312,0,0,1,64-20.14a2.27,2.27,0,0,1,1.64-.66h.32a2.189,2.189,0,0,1,1.6.68,2.189,2.189,0,0,1,.68,1.6v16.4Q68.24,9.2,57.28,9.2a19.728,19.728,0,0,1-4.88-.6,1.816,1.816,0,0,1-1.24-.96,2.223,2.223,0,0,1-.2-1.6,1.619,1.619,0,0,1,.88-1.14,1.987,1.987,0,0,1,1.48-.18,14.535,14.535,0,0,0,3.84.56q3.12,0,4.52-1.64T63.08-2V-3.48A.071.071,0,0,0,63-3.4,7.361,7.361,0,0,1,56.68-.4ZM86.44-15.5a4.507,4.507,0,0,0-3.76-1.74,4.507,4.507,0,0,0-3.76,1.74,8.16,8.16,0,0,0-1.36,5.1,8.16,8.16,0,0,0,1.36,5.1,4.507,4.507,0,0,0,3.76,1.74A4.507,4.507,0,0,0,86.44-5.3a8.16,8.16,0,0,0,1.36-5.1A8.16,8.16,0,0,0,86.44-15.5ZM90.22-2.52A9.917,9.917,0,0,1,82.68.4a9.917,9.917,0,0,1-7.54-2.92,10.956,10.956,0,0,1-2.78-7.88,10.956,10.956,0,0,1,2.78-7.88,9.917,9.917,0,0,1,7.54-2.92,9.917,9.917,0,0,1,7.54,2.92A10.956,10.956,0,0,1,93-10.4,10.956,10.956,0,0,1,90.22-2.52Z" transform="translate(-3.16 29.2)"/>
</svg>
