<svg xmlns="http://www.w3.org/2000/svg" width="21.515" height="16.888" viewBox="0 0 21.515 16.888">
  <path id="Path_12524" data-name="Path 12524" d="M269.988,895.652a.44.44,0,0,1,0,.064l-5.893-5.136,5.9-5.144Zm-1.457,1.457H252.984a1.435,1.435,0,0,1-.721-.191l6.218-5.419.581.505a2.582,2.582,0,0,0,3.394,0l.581-.505,6.215,5.419A1.435,1.435,0,0,1,268.531,897.109Zm-17-1.457V885.433l5.9,5.144-5.894,5.139C251.527,895.7,251.527,895.674,251.527,895.652Zm.428-11.949a1.44,1.44,0,0,1,1.029-.427h15.547a1.438,1.438,0,0,1,1.03.427,1.546,1.546,0,0,1,.13.153l-8.148,7.1a1.18,1.18,0,0,1-.785.294,1.194,1.194,0,0,1-.786-.294l-8.145-7.1A1.183,1.183,0,0,1,251.955,883.7Zm19.5.45a2.987,2.987,0,0,0-.615-1.3,2.684,2.684,0,0,0-.2-.224,2.978,2.978,0,0,0-2.11-.875H252.984a2.979,2.979,0,0,0-2.109.875,2.687,2.687,0,0,0-.2.224,3,3,0,0,0-.672,1.886v10.918a2.983,2.983,0,0,0,.247,1.186,2.928,2.928,0,0,0,.628.924c.066.066.132.128.205.189a2.987,2.987,0,0,0,1.9.686h15.547a2.965,2.965,0,0,0,1.9-.689,2.766,2.766,0,0,0,.206-.186,3,3,0,0,0,.63-.924v0a2.946,2.946,0,0,0,.244-1.183V884.734A3.028,3.028,0,0,0,271.459,884.153Z" transform="translate(-250 -881.749)"/>
</svg>
